-<?xml version="1.0" standalone="no"?>
<!DOCTYPE svg PUBLIC "-//W3C//DTD SVG 20010904//EN"
 "http://www.w3.org/TR/2001/REC-SVG-20010904/DTD/svg10.dtd">
<svg version="1.0" xmlns="http://www.w3.org/2000/svg"
 width="77.000000pt" height="73.000000pt" viewBox="0 0 77.000000 73.000000"
 preserveAspectRatio="xMidYMid meet">

<g transform="translate(0.000000,73.000000) scale(0.100000,-0.100000)"
fill="#000000" stroke="none">
<path d="M206 669 c-124 -10 -206 -27 -206 -42 0 -7 21 -148 47 -314 l47 -303
273 0 c150 0 273 2 273 5 0 3 15 101 34 218 19 116 40 248 46 292 6 44 13 87
16 96 6 21 -62 35 -231 49 -133 11 -157 11 -299 -1z m403 -50 c41 -5 77 -11
79 -14 2 -2 -2 -43 -9 -90 l-13 -87 -60 6 c-34 3 -96 8 -138 12 l-78 6 0 88
c0 47 3 90 7 93 7 7 86 2 212 -14z"/>
<path d="M520 580 c0 -5 7 -10 15 -10 8 0 15 5 15 10 0 6 -7 10 -15 10 -8 0
-15 -4 -15 -10z"/>
</g>
</svg>
