<svg width="33" height="32" viewBox="0 0 33 32" fill="none" xmlns="http://www.w3.org/2000/svg">
<path d="M31.4904 9.97168L16.8654 0.221681C16.3663 -0.0855066 15.8335 -0.0883191 15.3298 0.221681L0.70478 9.97168C0.329781 10.2216 0.0976562 10.6681 0.0976562 11.1145V20.8644C0.0976562 21.3109 0.329781 21.7573 0.704843 22.0073L15.3298 31.7587C15.829 32.0659 16.3618 32.0687 16.8655 31.7587L31.4905 22.0073C31.8655 21.7574 32.0977 21.3109 32.0977 20.8644V11.1145C32.0976 10.6681 31.8655 10.2216 31.4904 9.97168ZM17.4726 3.93587L28.2405 11.1145L23.4369 14.3288L17.4726 10.3466V3.93587ZM14.7226 3.93587V10.3466L8.75833 14.3288L3.95477 11.1145L14.7226 3.93587ZM2.84765 13.6859L6.29408 15.9895L2.84765 18.2931V13.6859ZM14.7226 28.0431L3.95477 20.8645L8.75833 17.6502L14.7226 21.6324V28.0431ZM16.0976 19.2395L11.2404 15.9895L16.0976 12.7395L20.9548 15.9895L16.0976 19.2395ZM17.4726 28.0431V21.6324L23.4369 17.6502L28.2405 20.8645L17.4726 28.0431ZM29.3476 18.2931L25.9012 15.9895L29.3476 13.6859V18.2931Z" fill="black"/>
</svg>
