<svg width="24" height="25" viewBox="0 0 24 25" fill="none" xmlns="http://www.w3.org/2000/svg">
<path d="M23.9517 22.2539L21.9829 10.4414C21.9048 9.67578 21.561 9.01953 20.9517 8.47266C20.3423 7.92578 19.6548 7.65234 18.8892 7.65234H17.2251V5.66016C17.2251 4.91016 17.0962 4.19531 16.8384 3.51562C16.5806 2.83594 16.2212 2.24609 15.7603 1.74609C15.2993 1.24609 14.7446 0.851562 14.0962 0.5625C13.4478 0.273438 12.7485 0.128906 11.9985 0.128906C10.9985 0.128906 10.0962 0.378906 9.2915 0.878906C8.48682 1.37891 7.85791 2.05078 7.40479 2.89453C6.95166 3.73828 6.7251 4.66016 6.7251 5.66016V7.65234H4.92041C4.67041 7.65234 4.42041 7.6875 4.17041 7.75781C3.92041 7.82812 3.68604 7.92188 3.46729 8.03906C3.24854 8.15625 3.04541 8.30078 2.85791 8.47266C2.67041 8.64453 2.50635 8.83203 2.36572 9.03516C2.2251 9.23828 2.10791 9.45703 2.01416 9.69141C1.92041 9.92578 1.85791 10.1602 1.82666 10.3945L0.0219727 22.2305C-0.0561523 22.8555 0.0610352 23.3398 0.373535 23.6836C0.67041 24.0117 1.09229 24.1758 1.63916 24.1758H22.1001C22.4595 24.1758 22.7563 24.1211 22.9907 24.0117C23.2251 23.9023 23.4126 23.7695 23.5532 23.6133C23.8657 23.2539 23.9985 22.8008 23.9517 22.2539ZM8.2251 5.66016C8.2251 4.53516 8.58057 3.58203 9.2915 2.80078C10.0024 2.01953 10.9048 1.62891 11.9985 1.62891C12.5454 1.62891 13.0532 1.73438 13.522 1.94531C13.9907 2.15625 14.3853 2.44531 14.7056 2.8125C15.0259 3.17969 15.2759 3.60938 15.4556 4.10156C15.6353 4.59375 15.7251 5.11328 15.7251 5.66016V7.65234H8.2251V5.66016ZM22.1704 22.6523L1.73291 22.6758C1.54541 22.6758 1.46729 22.5898 1.49854 22.418L3.30322 10.6055C3.33447 10.418 3.39697 10.2344 3.49072 10.0547C3.58447 9.875 3.70557 9.71875 3.854 9.58594C4.00244 9.45312 4.17041 9.34766 4.35791 9.26953C4.54541 9.19141 4.73291 9.15234 4.92041 9.15234H6.7251V10.8633C6.61572 10.9414 6.51416 11.0234 6.42041 11.1094C6.32666 11.1953 6.24854 11.293 6.18604 11.4023C6.12354 11.5117 6.07275 11.6328 6.03369 11.7656C5.99463 11.8984 5.9751 12.0273 5.9751 12.1523C5.9751 12.5742 6.11963 12.9297 6.40869 13.2188C6.69775 13.5078 7.05322 13.6523 7.4751 13.6523C7.89697 13.6523 8.25244 13.5078 8.5415 13.2188C8.83057 12.9297 8.9751 12.5742 8.9751 12.1523C8.9751 11.5898 8.7251 11.1602 8.2251 10.8633V9.15234H15.7251V10.8633C15.2251 11.1602 14.9751 11.5898 14.9751 12.1523C14.9751 12.5742 15.1196 12.9297 15.4087 13.2188C15.6978 13.5078 16.0532 13.6523 16.4751 13.6523C16.897 13.6523 17.2524 13.5078 17.5415 13.2188C17.8306 12.9297 17.9751 12.5742 17.9751 12.1523C17.9751 11.5898 17.7251 11.1602 17.2251 10.8633V9.15234H18.8892C18.9829 9.15234 19.0767 9.16406 19.1704 9.1875C19.2642 9.21094 19.3579 9.24219 19.4517 9.28125C19.5454 9.32031 19.6353 9.36719 19.7212 9.42188C19.8071 9.47656 19.8853 9.53516 19.9556 9.59766C20.0259 9.66016 20.0923 9.73047 20.1548 9.80859C20.2173 9.88672 20.272 9.97266 20.3188 10.0664C20.3657 10.1602 20.4048 10.2539 20.436 10.3477C20.4673 10.4414 20.4907 10.543 20.5063 10.6523L22.4517 22.4414C22.4673 22.5039 22.4517 22.5547 22.4048 22.5938C22.3579 22.6328 22.2798 22.6523 22.1704 22.6523Z" fill="black"/>
</svg>
