<svg width="19" height="20" viewBox="0 0 19 20" fill="none" xmlns="http://www.w3.org/2000/svg">
<path d="M9.15234 0.848389C10.8138 0.848389 12.3464 1.25659 13.75 2.073C15.1536 2.8894 16.2637 3.99943 17.0801 5.40308C17.8965 6.80672 18.3047 8.33927 18.3047 10.0007C18.3047 11.6622 17.8965 13.1947 17.0801 14.5984C16.2637 16.002 15.1536 17.1121 13.75 17.9285C12.3464 18.7449 10.8138 19.1531 9.15234 19.1531C7.49089 19.1531 5.95833 18.7449 4.55469 17.9285C3.15104 17.1121 2.04102 16.002 1.22461 14.5984C0.408203 13.1947 0 11.6622 0 10.0007C0 8.33927 0.408203 6.80672 1.22461 5.40308C2.04102 3.99943 3.15104 2.8894 4.55469 2.073C5.95833 1.25659 7.49089 0.848389 9.15234 0.848389ZM10.4414 15.5867C11.3008 15.4148 11.974 15.0997 12.4609 14.6414C13.0339 14.1257 13.3203 13.4812 13.3203 12.7078C13.3203 11.6479 12.9049 10.8171 12.0742 10.2156C11.5013 9.78589 10.6419 9.41349 9.49609 9.09839C8.57943 8.86922 7.94206 8.61857 7.58398 8.34644C7.22591 8.0743 7.04688 7.73055 7.04688 7.31519C7.04688 6.89982 7.24023 6.54891 7.62695 6.26245C8.01367 5.97599 8.55078 5.83276 9.23828 5.83276C10.2982 5.83276 10.9427 6.21948 11.1719 6.99292C11.2292 7.16479 11.3223 7.30086 11.4512 7.40112C11.5801 7.50138 11.7305 7.55151 11.9023 7.55151H12.1172C12.4036 7.55151 12.6257 7.44409 12.7832 7.22925C12.9408 7.0144 12.9622 6.77808 12.8477 6.52026C12.6758 6.03328 12.3893 5.6036 11.9883 5.2312C11.5872 4.85881 11.0716 4.60099 10.4414 4.45776V3.89917C10.4414 3.55542 10.3268 3.2618 10.0977 3.01831C9.86849 2.77482 9.58203 2.65308 9.23828 2.65308C8.89453 2.65308 8.60091 2.77482 8.35742 3.01831C8.11393 3.2618 7.99219 3.55542 7.99219 3.89917V4.45776C7.16146 4.62964 6.48112 4.97339 5.95117 5.48901C5.42122 6.00464 5.15625 6.63485 5.15625 7.37964C5.15625 8.26766 5.51432 8.99813 6.23047 9.57104C6.83203 10.058 7.7487 10.4447 8.98047 10.7312C9.92578 10.9604 10.5846 11.2611 10.957 11.6335C11.2721 11.92 11.4297 12.2781 11.4297 12.7078C11.4297 13.0802 11.2865 13.3953 11 13.6531C10.6276 13.9968 10.0404 14.1687 9.23828 14.1687C8.00651 14.1687 7.23307 13.782 6.91797 13.0085C6.77474 12.6361 6.53125 12.45 6.1875 12.45H5.97266C5.6862 12.45 5.46419 12.5645 5.30664 12.7937C5.14909 13.0229 5.1276 13.2664 5.24219 13.5242C5.47135 14.0684 5.82943 14.5125 6.31641 14.8562C6.80339 15.2 7.36198 15.4291 7.99219 15.5437V16.1023C7.99219 16.446 8.11393 16.7397 8.35742 16.9832C8.60091 17.2266 8.88021 17.3484 9.19531 17.3484H9.23828C9.55339 17.3484 9.83268 17.2266 10.0762 16.9832C10.3197 16.7397 10.4414 16.446 10.4414 16.1023V15.5867Z" fill="#3BB77E"/>
</svg>
