<svg width="22" height="23" viewBox="0 0 22 23" fill="none" xmlns="http://www.w3.org/2000/svg">
<path d="M17.9727 7.70609C18.2878 7.70609 18.5312 7.82374 18.7031 8.05905L20.8086 10.9709C21.0664 11.2945 21.1953 11.6622 21.1953 12.0739V15.2064C21.1953 15.4712 21.1022 15.6991 20.916 15.8903C20.7298 16.0815 20.5078 16.1771 20.25 16.1771H19.3477C19.3477 16.9418 19.0827 17.6036 18.5527 18.1625C18.0228 18.7213 17.3711 19.0007 16.5977 19.0007C15.8242 19.0007 15.1725 18.7213 14.6426 18.1625C14.1126 17.6036 13.8477 16.9418 13.8477 16.1771H8.34766C8.34766 16.9418 8.08268 17.6036 7.55273 18.1625C7.02279 18.7213 6.37109 19.0007 5.59766 19.0007C4.82422 19.0007 4.17253 18.7213 3.64258 18.1625C3.11263 17.6036 2.84766 16.9418 2.84766 16.1771C2.33203 16.1771 1.89518 15.9932 1.53711 15.6256C1.17904 15.2579 1 14.8094 1 14.2799V5.80894C1 5.27951 1.17904 4.83096 1.53711 4.46329C1.89518 4.09563 2.33203 3.9118 2.84766 3.9118H13.8477C14.3633 3.9118 14.8001 4.09563 15.1582 4.46329C15.5163 4.83096 15.6953 5.27951 15.6953 5.80894V7.70609H17.9727ZM5.59766 17.1036C5.85547 17.1036 6.07031 17.008 6.24219 16.8168C6.41406 16.6256 6.5 16.405 6.5 16.155C6.5 15.905 6.41406 15.6844 6.24219 15.4932C6.07031 15.302 5.85547 15.2064 5.59766 15.2064C5.33984 15.2064 5.125 15.302 4.95312 15.4932C4.78125 15.6844 4.69531 15.905 4.69531 16.155C4.69531 16.405 4.78125 16.6256 4.95312 16.8168C5.125 17.008 5.33984 17.1036 5.59766 17.1036ZM17.9727 9.11792H15.6953V11.4563H19.7773L17.9727 9.11792ZM16.5977 17.1036C16.8555 17.1036 17.0703 17.008 17.2422 16.8168C17.4141 16.6256 17.5 16.405 17.5 16.155C17.5 15.905 17.4141 15.6844 17.2422 15.4932C17.0703 15.302 16.8555 15.2064 16.5977 15.2064C16.3398 15.2064 16.125 15.302 15.9531 15.4932C15.7812 15.6844 15.6953 15.905 15.6953 16.155C15.6953 16.405 15.7812 16.6256 15.9531 16.8168C16.125 17.008 16.3398 17.1036 16.5977 17.1036Z" fill="#00B517"/>
</svg>
