<svg width="14" height="13" viewBox="0 0 14 13" fill="none" xmlns="http://www.w3.org/2000/svg">
<path d="M4.02144 1.2347C4.66848 1.2347 5.4662 1.70447 6.41461 2.64401L7.02619 3.2423L7.62448 2.63071C7.75744 2.4889 7.89704 2.35594 8.04329 2.23185C8.18953 2.10776 8.33357 1.99254 8.47538 1.88618C8.6172 1.77981 8.7568 1.68674 8.89419 1.60697C9.03157 1.5272 9.16231 1.45851 9.2864 1.4009C9.41049 1.34328 9.53236 1.30118 9.65202 1.27459C9.77168 1.248 9.88026 1.2347 9.97776 1.2347C10.7666 1.2347 11.4624 1.53606 12.0651 2.13879C12.6767 2.75037 12.9825 3.48605 12.9825 4.34581C12.9825 5.20558 12.6767 5.94569 12.0651 6.56614C12.0208 6.60159 10.4298 8.31669 7.2921 11.7114C7.24778 11.7558 7.19903 11.7846 7.14585 11.7979C7.09267 11.8112 7.04835 11.8178 7.0129 11.8178C6.90653 11.8178 6.81347 11.7823 6.73369 11.7114C3.8619 8.52055 2.27089 6.77 1.96066 6.45977C1.88976 6.38887 1.82106 6.31131 1.75459 6.22711C1.68811 6.1429 1.62606 6.0587 1.56845 5.97449C1.51084 5.89029 1.45766 5.80387 1.40891 5.71523C1.36016 5.6266 1.31584 5.53575 1.27595 5.44268C1.23607 5.34961 1.20283 5.25433 1.17624 5.15683C1.14965 5.05933 1.12527 4.96183 1.10311 4.86433C1.08096 4.76683 1.06544 4.6649 1.05658 4.55854C1.04772 4.45218 1.04329 4.35025 1.04329 4.25275C1.04329 3.38412 1.34908 2.64401 1.96066 2.03242C2.2443 1.75765 2.55452 1.55601 2.89134 1.42749C3.22815 1.29896 3.60486 1.2347 4.02144 1.2347ZM4.02144 0.383801C3.49849 0.383801 3.01543 0.468004 2.57225 0.636413C2.12907 0.80482 1.72578 1.07073 1.36237 1.43413C0.98124 1.81527 0.690958 2.25401 0.491528 2.75037C0.292098 3.24673 0.192383 3.74531 0.192383 4.2461C0.192383 4.74689 0.292098 5.24547 0.491528 5.74183C0.690958 6.23818 0.98124 6.67693 1.36237 7.05806C1.44215 7.13784 1.66152 7.37494 2.02049 7.76937C2.37947 8.16379 2.78276 8.60919 3.23037 9.10555C3.67798 9.60191 4.12116 10.0938 4.5599 10.5813C4.99865 11.0688 5.3687 11.4766 5.67007 11.8045C5.97143 12.1325 6.12211 12.2964 6.12211 12.2964C6.36142 12.5446 6.65614 12.6687 7.00625 12.6687C7.35636 12.6687 7.6555 12.5446 7.90368 12.2964C11.0414 8.90169 12.628 7.19102 12.6634 7.16443C13.4434 6.38443 13.8334 5.4449 13.8334 4.34581C13.8334 3.24673 13.4434 2.31163 12.6634 1.5405C12.2734 1.1505 11.859 0.860217 11.4203 0.669651C10.9816 0.479084 10.5007 0.383801 9.97776 0.383801C9.50799 0.383801 9.01385 0.538913 8.49533 0.849138C7.97681 1.15936 7.48266 1.55379 7.0129 2.03242C5.89609 0.933342 4.89894 0.383801 4.02144 0.383801Z" fill="#212121"/>
</svg>
