<svg width="13" height="11" viewBox="0 0 13 11" fill="none" xmlns="http://www.w3.org/2000/svg">
<path d="M12.7026 1.70752C12.3537 2.21794 11.9318 2.65283 11.437 3.01221C11.4422 3.08512 11.4448 3.1945 11.4448 3.34033C11.4448 4.01742 11.3459 4.6932 11.1479 5.36768C10.95 6.04215 10.6493 6.68929 10.2456 7.30908C9.84196 7.92887 9.36149 8.47705 8.8042 8.95361C8.24691 9.43018 7.57503 9.81038 6.78857 10.0942C6.00212 10.3781 5.16097 10.52 4.26514 10.52C2.85368 10.52 1.56201 10.1424 0.390137 9.38721C0.572428 9.40804 0.775553 9.41846 0.999512 9.41846C2.17139 9.41846 3.21566 9.05908 4.13232 8.34033C3.58545 8.32992 3.09587 8.16195 2.66357 7.83643C2.23128 7.51091 1.93441 7.09554 1.77295 6.59033C1.94482 6.61637 2.10368 6.62939 2.24951 6.62939C2.47347 6.62939 2.69482 6.60075 2.91357 6.54346C2.33024 6.42367 1.84717 6.1333 1.46436 5.67236C1.08154 5.21143 0.890137 4.67627 0.890137 4.06689V4.03564C1.2443 4.23356 1.62451 4.34033 2.03076 4.35596C1.68701 4.12679 1.41357 3.82731 1.21045 3.45752C1.00732 3.08773 0.905762 2.68669 0.905762 2.25439C0.905762 1.79606 1.02035 1.37158 1.24951 0.980957C1.87972 1.757 2.64665 2.37809 3.55029 2.84424C4.45394 3.31038 5.42139 3.5695 6.45264 3.62158C6.41097 3.42367 6.39014 3.23096 6.39014 3.04346C6.39014 2.34554 6.63623 1.75049 7.12842 1.2583C7.62061 0.766113 8.21566 0.52002 8.91357 0.52002C9.64274 0.52002 10.2573 0.785645 10.7573 1.31689C11.325 1.20752 11.8589 1.00439 12.3589 0.70752C12.1662 1.30648 11.7964 1.77002 11.2495 2.09814C11.7339 2.04606 12.2183 1.91585 12.7026 1.70752Z" fill="#929292"/>
</svg>
