<svg width="13" height="13" viewBox="0 0 13 13" fill="none" xmlns="http://www.w3.org/2000/svg">
<path d="M7.8042 7.93408C7.8042 7.93408 7.90186 7.83643 8.09717 7.64111C8.29248 7.4458 8.39014 7.0721 8.39014 6.52002C8.39014 5.96794 8.19482 5.49658 7.8042 5.10596C7.41357 4.71533 6.94222 4.52002 6.39014 4.52002C5.83805 4.52002 5.3667 4.71533 4.97607 5.10596C4.58545 5.49658 4.39014 5.96794 4.39014 6.52002C4.39014 7.0721 4.58545 7.54346 4.97607 7.93408C5.3667 8.32471 5.83805 8.52002 6.39014 8.52002C6.94222 8.52002 7.41357 8.32471 7.8042 7.93408ZM8.56982 4.34033C8.56982 4.34033 8.71956 4.49007 9.01904 4.78955C9.31852 5.08903 9.46826 5.66585 9.46826 6.52002C9.46826 7.37419 9.16878 8.10075 8.56982 8.69971C7.97087 9.29867 7.2443 9.59814 6.39014 9.59814C5.53597 9.59814 4.80941 9.29867 4.21045 8.69971C3.61149 8.10075 3.31201 7.37419 3.31201 6.52002C3.31201 5.66585 3.61149 4.93929 4.21045 4.34033C4.80941 3.74137 5.53597 3.44189 6.39014 3.44189C7.2443 3.44189 7.97087 3.74137 8.56982 4.34033ZM10.1011 2.80908C10.1011 2.80908 10.1362 2.84424 10.2065 2.91455C10.2769 2.98486 10.312 3.11898 10.312 3.31689C10.312 3.51481 10.2417 3.68408 10.1011 3.82471C9.96045 3.96533 9.79118 4.03564 9.59326 4.03564C9.39534 4.03564 9.22607 3.96533 9.08545 3.82471C8.94482 3.68408 8.87451 3.51481 8.87451 3.31689C8.87451 3.11898 8.94482 2.94971 9.08545 2.80908C9.22607 2.66846 9.39534 2.59814 9.59326 2.59814C9.79118 2.59814 9.96045 2.66846 10.1011 2.80908ZM6.98779 1.59424C6.98779 1.59424 6.8973 1.59489 6.71631 1.59619C6.53532 1.59749 6.4266 1.59814 6.39014 1.59814C6.35368 1.59814 6.15446 1.59684 5.79248 1.59424C5.4305 1.59163 5.15576 1.59163 4.96826 1.59424C4.78076 1.59684 4.52946 1.60466 4.21436 1.61768C3.89925 1.6307 3.63102 1.65674 3.40967 1.6958C3.18831 1.73486 3.00212 1.78304 2.85107 1.84033C2.59066 1.9445 2.36149 2.09554 2.16357 2.29346C1.96566 2.49137 1.81462 2.72054 1.71045 2.98096C1.65316 3.132 1.60498 3.3182 1.56592 3.53955C1.52686 3.76091 1.50081 4.02913 1.48779 4.34424C1.47477 4.65934 1.46696 4.91064 1.46436 5.09814C1.46175 5.28564 1.46175 5.56038 1.46436 5.92236C1.46696 6.28434 1.46826 6.48356 1.46826 6.52002C1.46826 6.55648 1.46696 6.7557 1.46436 7.11768C1.46175 7.47965 1.46175 7.75439 1.46436 7.94189C1.46696 8.12939 1.47477 8.3807 1.48779 8.6958C1.50081 9.01091 1.52686 9.27913 1.56592 9.50049C1.60498 9.72184 1.65316 9.90804 1.71045 10.0591C1.81462 10.3195 1.96566 10.5487 2.16357 10.7466C2.36149 10.9445 2.59066 11.0955 2.85107 11.1997C3.00212 11.257 3.18831 11.3052 3.40967 11.3442C3.63102 11.3833 3.89925 11.4093 4.21436 11.4224C4.52946 11.4354 4.78076 11.4432 4.96826 11.4458C5.15576 11.4484 5.4305 11.4484 5.79248 11.4458C6.15446 11.4432 6.35368 11.4419 6.39014 11.4419C6.4266 11.4419 6.62581 11.4432 6.98779 11.4458C7.34977 11.4484 7.62451 11.4484 7.81201 11.4458C7.99951 11.4432 8.25081 11.4354 8.56592 11.4224C8.88102 11.4093 9.14925 11.3833 9.37061 11.3442C9.59196 11.3052 9.77816 11.257 9.9292 11.1997C10.1896 11.0955 10.4188 10.9445 10.6167 10.7466C10.8146 10.5487 10.9657 10.3195 11.0698 10.0591C11.1271 9.90804 11.1753 9.72184 11.2144 9.50049C11.2534 9.27913 11.2795 9.01091 11.2925 8.6958C11.3055 8.3807 11.3133 8.12939 11.3159 7.94189C11.3185 7.75439 11.3185 7.47965 11.3159 7.11768C11.3133 6.7557 11.312 6.55648 11.312 6.52002C11.312 6.48356 11.3133 6.28434 11.3159 5.92236C11.3185 5.56038 11.3185 5.28564 11.3159 5.09814C11.3133 4.91064 11.3055 4.65934 11.2925 4.34424C11.2795 4.02913 11.2534 3.76091 11.2144 3.53955C11.1753 3.3182 11.1271 3.132 11.0698 2.98096C10.9657 2.72054 10.8146 2.49137 10.6167 2.29346C10.4188 2.09554 10.1896 1.9445 9.9292 1.84033C9.77816 1.78304 9.59196 1.73486 9.37061 1.6958C9.14925 1.65674 8.88102 1.6307 8.56592 1.61768C8.25081 1.60466 7.99951 1.59684 7.81201 1.59424C7.62451 1.59163 7.34977 1.59163 6.98779 1.59424ZM12.3511 4.04346C12.3771 4.50179 12.3901 5.32731 12.3901 6.52002C12.3901 7.71273 12.3771 8.53825 12.3511 8.99658C12.299 10.0799 11.9761 10.9185 11.3823 11.5122C10.7886 12.106 9.95003 12.4289 8.8667 12.481C8.40837 12.507 7.58285 12.52 6.39014 12.52C5.19743 12.52 4.37191 12.507 3.91357 12.481C2.83024 12.4289 1.9917 12.106 1.39795 11.5122C0.804199 10.9185 0.481283 10.0799 0.429199 8.99658C0.403158 8.53825 0.390137 7.71273 0.390137 6.52002C0.390137 5.32731 0.403158 4.50179 0.429199 4.04346C0.481283 2.96012 0.804199 2.12158 1.39795 1.52783C1.9917 0.934082 2.83024 0.611165 3.91357 0.559082C4.37191 0.53304 5.19743 0.52002 6.39014 0.52002C7.58285 0.52002 8.40837 0.53304 8.8667 0.559082C9.95003 0.611165 10.7886 0.934082 11.3823 1.52783C11.9761 2.12158 12.299 2.96012 12.3511 4.04346Z" fill="#929292"/>
</svg>
