<svg width="13" height="15" viewBox="0 0 13 15" fill="none" xmlns="http://www.w3.org/2000/svg">
<g clip-path="url(#clip0_0_2841)">
<path d="M3.1167 5.40283V13.145H0.538574V5.40283H3.1167ZM3.28076 3.01221C3.28597 3.39242 3.15446 3.71012 2.88623 3.96533C2.618 4.22054 2.26514 4.34814 1.82764 4.34814H1.81201C1.38493 4.34814 1.04118 4.22054 0.780762 3.96533C0.520345 3.71012 0.390137 3.39242 0.390137 3.01221C0.390137 2.62679 0.524251 2.30778 0.79248 2.05518C1.06071 1.80257 1.41097 1.67627 1.84326 1.67627C2.27555 1.67627 2.62191 1.80257 2.88232 2.05518C3.14274 2.30778 3.27555 2.62679 3.28076 3.01221ZM12.3901 8.70752V13.145H9.81982V9.00439C9.81982 8.45752 9.71436 8.02913 9.50342 7.71924C9.29248 7.40934 8.96305 7.25439 8.51514 7.25439C8.18701 7.25439 7.91227 7.34424 7.69092 7.52393C7.46956 7.70361 7.3042 7.92627 7.19482 8.19189C7.13753 8.34814 7.10889 8.55908 7.10889 8.82471V13.145H4.53857C4.54899 11.0669 4.5542 9.382 4.5542 8.09033C4.5542 6.79867 4.5516 6.02783 4.54639 5.77783L4.53857 5.40283H7.10889V6.52783H7.09326C7.19743 6.36117 7.3042 6.21533 7.41357 6.09033C7.52295 5.96533 7.67008 5.82992 7.85498 5.68408C8.03988 5.53825 8.26644 5.42497 8.53467 5.34424C8.8029 5.26351 9.10107 5.22314 9.4292 5.22314C10.3198 5.22314 11.036 5.51872 11.5776 6.10986C12.1193 6.70101 12.3901 7.56689 12.3901 8.70752Z" fill="#929292"/>
</g>
<defs>
<clipPath id="clip0_0_2841">
<rect width="12" height="14" fill="white" transform="matrix(1 0 0 -1 0.390137 14.52)"/>
</clipPath>
</defs>
</svg>
