<svg width="12" height="12" viewBox="0 0 12 12" fill="none" xmlns="http://www.w3.org/2000/svg">
<path d="M2.95264 8.95752C2.95264 8.95752 3.02555 9.03044 3.17139 9.17627C3.31722 9.3221 3.39014 9.60335 3.39014 10.02C3.39014 10.4367 3.2443 10.7909 2.95264 11.0825C2.66097 11.3742 2.3068 11.52 1.89014 11.52C1.47347 11.52 1.1193 11.3742 0.827637 11.0825C0.53597 10.7909 0.390137 10.4367 0.390137 10.02C0.390137 9.60335 0.53597 9.24919 0.827637 8.95752C1.1193 8.66585 1.47347 8.52002 1.89014 8.52002C2.3068 8.52002 2.66097 8.66585 2.95264 8.95752ZM7.39014 10.981C7.40055 11.1268 7.35628 11.2518 7.25732 11.356C7.16357 11.4653 7.04118 11.52 6.89014 11.52H5.83545C5.70524 11.52 5.59326 11.4771 5.49951 11.3911C5.40576 11.3052 5.35368 11.1971 5.34326 11.0669C5.22868 9.87419 4.74821 8.85466 3.90186 8.0083C3.0555 7.16195 2.03597 6.68148 0.843262 6.56689C0.713053 6.55648 0.60498 6.50439 0.519043 6.41064C0.433105 6.31689 0.390137 6.20492 0.390137 6.07471V5.02002C0.390137 4.86898 0.444824 4.74658 0.554199 4.65283C0.642741 4.56429 0.75472 4.52002 0.890137 4.52002H0.929199C1.76253 4.58773 2.55941 4.79736 3.31982 5.14893C4.08024 5.50049 4.75472 5.97314 5.34326 6.56689C5.93701 7.15544 6.40967 7.82992 6.76123 8.59033C7.11279 9.35075 7.32243 10.1476 7.39014 10.981ZM11.3901 10.9966C11.4006 11.1372 11.3537 11.2596 11.2495 11.3638C11.1558 11.4679 11.036 11.52 10.8901 11.52H9.77295C9.63753 11.52 9.52165 11.4744 9.42529 11.3833C9.32894 11.2922 9.27816 11.1815 9.27295 11.0513C9.21045 9.93148 8.94743 8.86768 8.48389 7.85986C8.02035 6.85205 7.41748 5.97705 6.67529 5.23486C5.93311 4.49268 5.05811 3.88981 4.05029 3.42627C3.04248 2.96273 1.97868 2.6971 0.858887 2.62939C0.728678 2.62419 0.618001 2.57341 0.526855 2.47705C0.43571 2.3807 0.390137 2.26742 0.390137 2.13721V1.02002C0.390137 0.874187 0.44222 0.754395 0.546387 0.660645C0.640137 0.566895 0.75472 0.52002 0.890137 0.52002H0.913574C2.27816 0.587728 3.58415 0.900228 4.83154 1.45752C6.07894 2.01481 7.18701 2.78044 8.15576 3.75439C9.12972 4.72314 9.89534 5.83122 10.4526 7.07861C11.0099 8.32601 11.3224 9.632 11.3901 10.9966Z" fill="#929292"/>
</svg>
