<svg width="24" height="25" viewBox="0 0 24 25" fill="none" xmlns="http://www.w3.org/2000/svg">
<path d="M12 1.65234C12.6094 1.65234 13.2383 1.77344 13.8867 2.01562C14.5352 2.25781 15.1016 2.5625 15.5859 2.92969C16.0703 3.29688 16.4688 3.70312 16.7812 4.14844C17.0938 4.59375 17.25 5.01172 17.25 5.40234V9.15234C17.25 10.043 17.0625 11.0352 16.6875 12.1289C16.3125 13.2227 15.7578 14.0508 15.0234 14.6133C14.8984 14.7227 14.7891 14.8516 14.6953 15C14.6016 15.1484 14.5352 15.3047 14.4961 15.4688C14.457 15.6328 14.4453 15.8008 14.4609 15.9727C14.5391 16.5352 14.8281 16.9336 15.3281 17.168L21.8672 20.2617C21.8672 20.2617 21.8828 20.2656 21.9141 20.2734C21.9453 20.2812 21.9766 20.293 22.0078 20.3086C22.0391 20.3242 22.0781 20.3477 22.125 20.3789C22.1719 20.4102 22.2148 20.4453 22.2539 20.4844C22.293 20.5234 22.332 20.5742 22.3711 20.6367C22.4102 20.6992 22.4375 20.7773 22.4531 20.8711C22.4688 20.9648 22.4766 21.0664 22.4766 21.1758V22.6289L1.5 22.6523V21.1289C1.5 20.7383 1.71094 20.4492 2.13281 20.2617L8.71875 17.1445C9.21875 16.9102 9.50391 16.5156 9.57422 15.9609C9.64453 15.4062 9.46094 14.957 9.02344 14.6133C8.30469 14.0352 7.74609 13.1953 7.34766 12.0938C6.94922 10.9922 6.75 10.0117 6.75 9.15234V5.40234C6.75 4.88672 7.00781 4.33594 7.52344 3.75C8.03906 3.16406 8.71094 2.66797 9.53906 2.26172C10.3672 1.85547 11.1875 1.65234 12 1.65234ZM12 0.152344C10.9219 0.152344 9.85547 0.414062 8.80078 0.9375C7.74609 1.46094 6.89062 2.13281 6.23438 2.95312C5.57812 3.77344 5.25 4.58984 5.25 5.40234V9.15234C5.25 10.168 5.48828 11.3359 5.96484 12.6562C6.44141 13.9766 7.14844 15.0195 8.08594 15.7852L1.5 18.9023C1.45312 18.918 1.39844 18.9414 1.33594 18.9727C1.27344 19.0039 1.15625 19.0742 0.984375 19.1836C0.8125 19.293 0.660156 19.4023 0.527344 19.5117C0.394531 19.6211 0.273438 19.7578 0.164062 19.9219C0.0546875 20.0859 0 20.2383 0 20.3789V22.6523C0 23.0586 0.144531 23.4062 0.433594 23.6953C0.722656 23.9844 1.07812 24.1289 1.5 24.1289H22.5C22.9062 24.1289 23.2539 23.9844 23.543 23.6953C23.832 23.4062 23.9766 23.0586 23.9766 22.6523V20.3789C23.9766 20.2227 23.9258 20.0625 23.8242 19.8984C23.7227 19.7344 23.5977 19.5938 23.4492 19.4766C23.3008 19.3594 23.1562 19.2539 23.0156 19.1602C22.875 19.0664 22.75 18.9961 22.6406 18.9492L22.5 18.9023L15.9609 15.7852C16.8984 15.0508 17.5977 14.0352 18.0586 12.7383C18.5195 11.4414 18.75 10.2461 18.75 9.15234V5.40234C18.75 4.79297 18.5508 4.17188 18.1523 3.53906C17.7539 2.90625 17.2422 2.33984 16.6172 1.83984C15.9922 1.33984 15.2656 0.933594 14.4375 0.621094C13.6094 0.308594 12.7969 0.152344 12 0.152344Z" fill="black"/>
</svg>
