<svg width="24" height="26" viewBox="0 0 24 26" fill="none" xmlns="http://www.w3.org/2000/svg">
<g clip-path="url(#clip0_0_2682)">
<path d="M23.8594 23.8633L16.5703 16.5273C18.0234 14.793 18.75 12.793 18.75 10.5273C18.75 8.82422 18.332 7.25391 17.4961 5.81641C16.6602 4.37891 15.5195 3.24219 14.0742 2.40625C12.6289 1.57031 11.0586 1.15234 9.36328 1.15234C7.66797 1.15234 6.10156 1.57031 4.66406 2.40625C3.22656 3.24219 2.08984 4.37891 1.25391 5.81641C0.417969 7.25391 0 8.82422 0 10.5273C0 12.2305 0.417969 13.8008 1.25391 15.2383C2.08984 16.6758 3.22656 17.8125 4.66406 18.6484C6.10156 19.4844 7.67188 19.9023 9.375 19.9023C11.7031 19.9023 13.75 19.1367 15.5156 17.6055L22.7812 24.918C22.9375 25.0742 23.1172 25.1523 23.3203 25.1523C23.5234 25.1523 23.6992 25.0781 23.8477 24.9297C23.9961 24.7812 24.0703 24.6016 24.0703 24.3906C24.0703 24.1797 24 24.0039 23.8594 23.8633ZM9.375 18.4258C7.9375 18.4258 6.61328 18.0703 5.40234 17.3594C4.19141 16.6484 3.23438 15.6875 2.53125 14.4766C1.82812 13.2656 1.47656 11.9492 1.47656 10.5273C1.47656 9.10547 1.82812 7.78906 2.53125 6.57812C3.23438 5.36719 4.19141 4.40625 5.40234 3.69531C6.61328 2.98438 7.93359 2.62891 9.36328 2.62891C10.793 2.62891 12.1133 2.98438 13.3242 3.69531C14.5352 4.40625 15.4922 5.36719 16.1953 6.57812C16.8984 7.78906 17.25 9.10547 17.25 10.5273C17.25 11.1367 17.1797 11.7383 17.0391 12.332C16.8984 12.9258 16.6992 13.4805 16.4414 13.9961C16.1836 14.5117 15.875 15 15.5156 15.4609C15.1562 15.9219 14.75 16.332 14.2969 16.6914C13.8438 17.0508 13.3594 17.3594 12.8438 17.6172C12.3281 17.875 11.7734 18.0742 11.1797 18.2148C10.5859 18.3555 9.98438 18.4258 9.375 18.4258Z" fill="black"/>
</g>
<defs>
<clipPath id="clip0_0_2682">
<rect width="24" height="25" fill="white" transform="matrix(1 0 0 -1 0 25.5)"/>
</clipPath>
</defs>
</svg>
