<svg width="31" height="30" viewBox="0 0 31 30" fill="none" xmlns="http://www.w3.org/2000/svg">
<path d="M14.3047 1.92773C15.0807 1.56836 15.9766 1.56836 16.7526 1.92773L28.138 7.18815C28.5807 7.39128 28.862 7.83398 28.862 8.32357C28.862 8.81315 28.5807 9.25586 28.138 9.45899L16.7526 14.7194C15.9766 15.0788 15.0807 15.0788 14.3047 14.7194L2.91927 9.45899C2.47656 9.25065 2.19531 8.80794 2.19531 8.32357C2.19531 7.83919 2.47656 7.39128 2.91927 7.18815L14.3047 1.92773ZM25.3672 12.5736L28.138 13.8548C28.5807 14.0579 28.862 14.5007 28.862 14.9902C28.862 15.4798 28.5807 15.9225 28.138 16.1257L16.7526 21.3861C15.9766 21.7454 15.0807 21.7454 14.3047 21.3861L2.91927 16.1257C2.47656 15.9173 2.19531 15.4746 2.19531 14.9902C2.19531 14.5059 2.47656 14.0579 2.91927 13.8548L5.6901 12.5736L13.6068 16.2298C14.8255 16.7923 16.2318 16.7923 17.4505 16.2298L25.3672 12.5736ZM17.4505 22.8965L25.3672 19.2402L28.138 20.5215C28.5807 20.7246 28.862 21.1673 28.862 21.6569C28.862 22.1465 28.5807 22.5892 28.138 22.7923L16.7526 28.0527C15.9766 28.4121 15.0807 28.4121 14.3047 28.0527L2.91927 22.7923C2.47656 22.584 2.19531 22.1413 2.19531 21.6569C2.19531 21.1725 2.47656 20.7246 2.91927 20.5215L5.6901 19.2402L13.6068 22.8965C14.8255 23.459 16.2318 23.459 17.4505 22.8965Z" fill="black"/>
</svg>
